 <svg version="1.0" xmlns="http://www.w3.org/2000/svg" width="700.000000pt" height="700.000000pt" viewBox="0 0 700.000000 700.000000" preserveAspectRatio="xMidYMid meet">
<metadata>
Created by potrace 1.12, written by Peter Selinger 2001-2015
</metadata>
<g transform="translate(0.000000,700.000000) scale(0.100000,-0.100000)" fill="#000000" stroke="none">
<path d="M3315 5733 c-87 -8 -266 -46 -375 -79 -527 -163 -979 -573 -1181
-1069 -18 -44 -37 -85 -43 -91 -6 -6 -54 -16 -107 -22 -256 -31 -504 -149
-684 -326 -176 -175 -280 -357 -337 -593 -32 -138 -32 -394 1 -528 42 -173
110 -315 215 -456 218 -289 577 -469 936 -469 l98 0 43 -56 c122 -159 349
-313 556 -378 141 -44 261 -59 408 -53 235 11 421 71 633 207 19 13 25 13 45
0 213 -136 395 -196 632 -207 377 -17 739 149 980 449 29 37 33 38 140 54 294
44 543 172 761 389 200 199 311 401 377 685 32 138 31 412 -1 552 -46 201
-131 391 -242 539 -69 92 -242 256 -336 318 -107 71 -260 143 -369 175 -101
28 -251 56 -307 56 -35 0 -40 4 -101 93 -322 458 -815 751 -1356 806 -96 10
-295 12 -386 4z m346 -283 c284 -29 564 -138 801 -311 46 -34 130 -110 189
-169 109 -112 175 -200 256 -341 l48 -82 87 2 c373 9 731 -177 936 -489 71
-107 114 -205 149 -339 22 -84 26 -117 26 -256 0 -142 -3 -171 -27 -260 -33
-120 -96 -258 -165 -358 -61 -88 -192 -217 -280 -277 -175 -117 -408 -190
-611 -190 l-58 0 -58 -83 c-137 -195 -310 -318 -534 -378 -69 -19 -110 -23
-220 -23 -157 0 -253 21 -385 83 -81 38 -215 133 -269 190 -37 39 -55 39 -92
0 -55 -58 -189 -152 -272 -191 -135 -63 -225 -82 -382 -82 -161 0 -255 21
-397 89 -151 74 -262 171 -361 320 -74 112 -60 104 -154 88 -52 -9 -119 -12
-179 -9 -403 21 -737 294 -841 686 -31 120 -31 318 1 440 111 425 484 700 934
688 l118 -3 45 134 c146 445 434 775 849 972 276 131 546 179 846 149z"></path>
</g>
</svg>